<svg preserveAspectRatio="none" overflow="visible" style="display: block;" width="22" height="22" viewBox="0 0 22 22" fill="none" xmlns="http://www.w3.org/2000/svg">
<g id="codepen">
<path id="Icon" d="M11 8.25L3.72521 12.9786C3.09468 13.3885 2.77941 13.5934 2.67023 13.8533C2.5748 14.0804 2.5748 14.3363 2.67023 14.5634M11 8.25L18.2748 12.9786C18.9053 13.3885 19.2206 13.5934 19.3298 13.8533C19.4252 14.0804 19.4252 14.3363 19.3298 14.5634M11 8.25V2.29167M11 13.75L3.72521 9.02138C3.09468 8.61154 2.77941 8.40662 2.67023 8.14675C2.5748 7.91964 2.5748 7.66369 2.67023 7.43659M11 13.75L18.2748 9.02139C18.9053 8.61154 19.2206 8.40662 19.3298 8.14675C19.4252 7.91964 19.4252 7.66369 19.3298 7.43659M11 13.75V19.7083M19.4993 14.6421L11.7993 19.6471C11.51 19.8352 11.3653 19.9292 11.2095 19.9658C11.0717 19.9981 10.9283 19.9981 10.7905 19.9658C10.6347 19.9292 10.49 19.8352 10.2007 19.6471L2.50068 14.6421C2.25685 14.4836 2.13493 14.4044 2.04659 14.2987C1.9684 14.2051 1.90966 14.0969 1.87382 13.9803C1.83333 13.8486 1.83333 13.7032 1.83333 13.4124V8.58761C1.83333 8.29678 1.83333 8.15137 1.87382 8.0197C1.90966 7.90315 1.9684 7.79491 2.04659 7.70134C2.13493 7.59563 2.25685 7.51638 2.50068 7.35789L10.2007 2.35289C10.49 2.16483 10.6347 2.0708 10.7905 2.03422C10.9283 2.00188 11.0717 2.00188 11.2095 2.03422C11.3653 2.0708 11.51 2.16483 11.7993 2.35289L19.4993 7.35789C19.7432 7.51638 19.8651 7.59563 19.9534 7.70134C20.0316 7.79491 20.0903 7.90315 20.1262 8.0197C20.1667 8.15137 20.1667 8.29678 20.1667 8.58761V13.4124C20.1667 13.7032 20.1667 13.8486 20.1262 13.9803C20.0903 14.0969 20.0316 14.2051 19.9534 14.2987C19.8651 14.4044 19.7432 14.4836 19.4993 14.6421Z" stroke="#EBEBF5" stroke-width="1.19167" stroke-linecap="round" stroke-linejoin="round"/>
</g>
</svg>
