<svg preserveAspectRatio="none" overflow="visible" style="display: block;" width="26" height="26" viewBox="0 0 26 26" fill="none" xmlns="http://www.w3.org/2000/svg">
<g id="Frame" clip-path="url(#clip0_0_596)">
<path id="Vector" d="M5.91312 15.0014C6.13082 15.0014 6.42809 15.1346 6.90894 15.4513C7.12662 15.5943 7.29557 15.6788 7.42551 15.7064C7.74716 15.7762 7.73419 15.8087 7.24194 16.1174C6.53369 16.556 6.03172 16.5917 5.8449 16.2051C5.78967 16.0865 5.77507 15.8185 5.82542 15.7421C5.84652 15.7096 5.82217 15.6479 5.7507 15.5456C5.6321 15.3766 5.60447 15.1557 5.6857 15.0582C5.71657 15.0192 5.78967 15.0014 5.91312 15.0014ZM8.79983 10.1637C9.28068 10.0499 9.89473 10.2465 10.5169 10.7144C10.6664 10.8297 10.8467 10.9483 10.9084 10.9808C10.9685 11.0133 11.0221 11.062 11.0221 11.0864C10.9906 11.1681 10.9437 11.2431 10.884 11.3073C10.4178 11.8888 9.91585 12.1634 9.30506 12.1634C8.96228 12.1666 8.84533 12.1423 8.43271 11.9733C8.17604 11.871 8.14841 11.8515 8.19716 11.8093C8.24264 11.7703 8.29786 11.7768 8.54153 11.858C9.24171 12.0854 9.82488 12.0204 10.2278 11.6614C10.4 11.5152 10.5575 11.2586 10.5055 11.2114C10.3349 11.086 10.1604 10.9657 9.98248 10.8508C9.95485 10.8346 9.94348 10.9028 9.94023 11.0685C9.93698 11.5591 9.63158 11.8645 9.21083 11.7995C8.91843 11.7492 8.68776 11.4373 8.68776 11.0896C8.68499 10.9771 8.70776 10.8655 8.75436 10.7631C8.87781 10.5275 8.71536 10.5779 8.41808 10.8654L8.19716 11.0717L7.95186 10.8265L8.02169 10.6997C8.14029 10.4755 8.48793 10.2368 8.80146 10.1637H8.79983Z" fill="white"/>
<path id="Vector_2" d="M12.1572 0.0183667C12.6218 -0.0189829 13.5218 0.00539208 13.9896 0.0719917C16.5644 0.432615 18.7299 1.81828 20.0278 3.93825C20.4096 4.56204 20.6484 5.07864 21.0594 6.16379C21.4817 7.28468 21.6556 7.96695 21.9333 9.55245C22.0844 10.4329 22.1445 10.7172 22.4597 12.1061C22.7352 13.312 23.0391 14.5112 23.371 15.7027L23.6764 16.8188L23.8389 17.4231L24.0338 17.5303C24.1475 17.5953 24.3782 17.787 24.5715 17.9835C24.8558 18.2759 24.937 18.3799 25.0702 18.6577C25.3123 19.145 25.3789 19.439 25.3951 20.1067C25.4211 20.9449 25.309 21.4924 24.976 22.1422C24.5617 22.9382 23.9152 23.5344 22.9129 24.0396C22.2729 24.3596 22.1884 24.5269 22.2355 25.4155L22.268 25.9841H21.8798L21.831 25.7794C21.7254 25.3278 21.4899 24.8859 21.074 24.3515C20.0457 23.0389 19.3715 22.6393 18.1792 22.6393C17.4352 22.6393 16.8455 22.8358 16.259 23.2777C15.9341 23.523 15.052 24.4294 14.6492 24.9314C14.4782 25.146 14.3311 25.3786 14.2106 25.6251L14.0351 25.9824H11.9964L12.2174 25.7306C12.3408 25.5909 12.6235 25.2823 12.846 25.0403C13.0702 24.7933 13.4844 24.3206 13.7655 23.9843C14.3292 23.3102 14.529 23.0958 14.8977 22.7627L15.143 22.5385L14.6167 22.8082C13.6907 23.2858 11.3125 24.6682 10.9681 24.9347C10.6642 25.1931 10.3827 25.4768 10.1266 25.7826L9.95119 25.9873L4.56119 25.9662L4.79999 25.8086C5.36854 25.435 5.88839 24.7803 6.14831 24.1094C6.27826 23.7732 6.42446 23.2111 6.42446 23.0568C6.42121 22.956 6.41796 22.9626 6.31236 23.1542C6.00696 23.7131 5.48064 24.0477 4.81134 24.1062C3.91627 24.1841 3.23235 23.6919 3.1154 22.8813L3.07803 22.6214L2.78888 22.5451C2.35107 22.4183 1.94067 22.2111 1.57863 21.9342C1.15191 21.5755 0.841013 21.0984 0.685163 20.5632C0.592589 20.2675 0.586089 20.2009 0.586089 19.6324C0.586089 19.0784 0.595813 18.9825 0.680288 18.6674C0.828137 18.12 1.11241 17.5839 1.38208 17.3451C1.49903 17.2395 1.51203 17.2752 1.42756 17.4474C1.11566 18.0777 1.24236 19.0151 1.69561 19.4455C1.90838 19.6502 2.12283 19.7379 2.40388 19.7379C2.73365 19.7379 2.94318 19.6405 3.18688 19.3724C3.6141 18.9062 3.74407 18.3799 3.99912 16.0358C4.12257 14.9311 4.35487 12.4652 4.35487 12.2637C4.35487 12.1419 4.3435 12.124 4.25902 12.1029C3.44842 11.9274 2.92695 11.6497 2.4396 11.1347C1.86131 10.5271 1.61601 9.82859 1.61601 8.78895C1.61601 7.04913 2.42335 5.11599 3.70345 3.77582C4.58069 2.86448 6.24901 1.75496 7.39103 1.33259C9.43299 0.575564 11.514 1.12626 13.0085 2.8206C13.8402 3.76117 14.4331 5.04614 14.8051 6.71936C14.8929 7.11573 14.9286 7.20346 15.005 7.27008C15.0537 7.31553 15.1252 7.35128 15.1593 7.35128C15.2568 7.35128 15.3039 7.42441 15.3039 7.5787C15.3039 7.70868 15.2827 7.74278 15.0894 7.9296C14.5452 8.46568 14.196 9.1967 14.0189 10.1681C13.9377 10.6067 13.9377 11.4986 14.0189 11.9469C14.2544 13.2693 14.8896 14.2245 15.7035 14.4811C16.0376 14.583 16.3975 14.5575 16.7139 14.4096C17.3377 14.101 17.8641 13.3294 18.111 12.3547C18.3059 11.5782 18.3173 10.7611 18.1418 9.90497C17.8982 8.70772 17.2484 7.80938 16.4443 7.56083C16.3663 7.53645 16.2818 7.49586 16.2607 7.46338C16.2087 7.39838 16.2022 7.20996 16.2477 7.20996C16.2639 7.20996 16.3289 7.16771 16.3874 7.11898C16.4816 7.04101 16.4962 7.00363 16.4962 6.86231C16.4962 6.69986 16.2753 5.86976 16.0852 5.31582C15.3705 3.22348 14.0969 1.57951 12.6608 0.897212C11.9396 0.559339 11.3093 0.429365 10.432 0.44724C10.1023 0.45374 9.85212 0.44724 9.87324 0.435865C9.89762 0.422865 10.1543 0.35464 10.4418 0.289666C10.9892 0.159716 11.5546 0.0687417 12.1573 0.0183667H12.1572ZM5.59431 8.52415C5.55046 8.4462 5.51636 8.41045 5.51636 8.43968C5.51311 8.54528 5.82826 9.26492 6.01994 9.58332C6.12554 9.76202 6.21489 9.91634 6.21489 9.92772C6.21489 9.93744 6.18564 9.94882 6.14989 9.94882C6.06706 9.94882 5.27107 10.1438 5.24182 10.173C5.22882 10.1876 5.27754 10.2428 5.34741 10.303C5.41724 10.3631 5.47736 10.4215 5.47736 10.4394C5.47736 10.454 5.34741 10.4573 5.18497 10.4508C4.94129 10.4329 4.86657 10.4427 4.73009 10.5028C4.63914 10.545 4.55464 10.597 4.54329 10.6262C4.52217 10.6782 4.75447 11.211 4.79997 11.211C4.84718 11.1972 4.89208 11.1764 4.93317 11.1493C5.19957 10.9836 5.52284 11.0356 5.80711 11.2858C6.07354 11.5197 6.09954 11.7731 5.89811 12.1793C5.65931 12.665 5.50499 12.7949 5.24507 12.7202C5.15734 12.6958 5.09074 12.6552 5.09074 12.6292C5.09074 12.6016 5.06637 12.5805 5.03874 12.5805C5.01112 12.5805 4.98677 12.5902 4.98517 12.6049C4.98517 12.6146 4.95429 12.9346 4.91204 13.3131C4.78534 14.4957 4.83569 14.9279 5.21419 15.8506C5.50174 16.5491 6.38546 18.1736 6.62426 18.44C6.81431 18.6512 7.11158 18.7876 7.4365 18.8136C7.5957 18.825 7.93683 18.7974 8.5119 18.721C9.97879 18.531 9.88782 18.5261 10.19 18.7486C10.4694 18.9517 10.9372 19.5657 11.2378 20.1246C11.3044 20.2496 11.3677 20.352 11.3791 20.352C11.3856 20.352 11.5432 20.2155 11.7235 20.0433L12.0484 19.7379L12.0078 19.5349C11.9022 18.9988 11.9266 18.1232 12.0776 17.0917C12.115 16.8253 12.2953 15.7921 12.4773 14.7946C12.6559 13.7972 12.8314 12.7689 12.8639 12.5106C12.9256 11.9746 12.976 10.454 12.937 10.1551L12.9126 9.95532L12.5893 9.90009C11.7698 9.76565 10.938 9.72099 10.1088 9.76689L9.70589 9.79774L9.55807 9.63205C9.41347 9.47122 9.407 9.46797 9.25915 9.49235C8.75557 9.57682 8.50215 9.68567 7.93683 10.0707C7.80222 10.1679 7.6611 10.2559 7.51445 10.3338C7.45275 10.3338 7.44135 10.2217 7.4982 10.1178C7.5307 10.0577 7.62818 9.93097 7.71265 9.83674C7.80038 9.74577 7.85885 9.66779 7.8426 9.66779C7.82473 9.66779 7.57458 9.71002 7.29028 9.76199C6.82081 9.84649 6.76071 9.84974 6.68436 9.80424C6.51216 9.69864 6.08329 9.2503 5.88024 8.95627C5.77983 8.81532 5.68394 8.67121 5.59271 8.52415H5.59431ZM5.22719 11.4206C5.10699 11.4206 5.01924 11.5896 5.01924 11.8202C5.02252 12.4034 5.27594 12.7332 5.54884 12.5123L5.63331 12.4457L5.54234 12.3709C5.39126 12.2572 5.28894 11.9713 5.28894 11.6724C5.28894 11.4563 5.27916 11.4206 5.22719 11.4206ZM7.97743 6.33274C7.94983 6.33274 7.99368 6.68363 8.07165 7.06373C8.21298 7.73953 8.47777 8.5404 8.73445 9.06672L8.8644 9.33315L9.05935 9.31852C9.12912 9.3199 9.19869 9.31059 9.26565 9.29092C9.2754 9.28442 9.24452 9.20967 9.19905 9.12847C8.58175 8.03518 8.32833 7.45523 8.07165 6.58616C8.05245 6.49764 8.02073 6.41231 7.97745 6.33274H7.97743Z" fill="white"/>
<path id="Vector_3" d="M16.0104 10.7896C16.3971 10.7083 16.9526 10.8221 17.1687 11.0251C17.2873 11.1388 17.2905 11.1892 17.1898 11.2607C17.094 11.3256 16.964 11.3305 16.6424 11.2737C16.4447 11.2414 16.2429 11.2441 16.0462 11.2818C15.7408 11.3191 15.6725 11.3191 15.5588 11.2769C15.4565 11.2395 15.424 11.207 15.424 11.1404C15.424 11.0771 15.4695 11.0349 15.6417 10.9406C15.7577 10.8748 15.8816 10.8241 16.0104 10.7896ZM15.5458 6.58379C16.0592 6.48794 16.1956 6.48794 16.2622 6.58704C16.2977 6.64364 16.3173 6.7087 16.3191 6.77547C16.3191 6.95092 16.2054 7.01427 15.7668 7.08899C15.5605 7.11987 15.3477 7.15399 15.2957 7.16534C15.0942 7.20434 14.961 6.85344 15.1186 6.71049C15.2547 6.64777 15.3991 6.60509 15.5475 6.58379H15.5458Z" fill="white"/>
</g>
<defs>
<clipPath id="clip0_0_596">
<rect width="26" height="26" fill="white"/>
</clipPath>
</defs>
</svg>
